<mxfile host="app.diagrams.net" modified="2023-07-11T02:37:40.184Z" agent="Mozilla/5.0 (Macintosh; Intel Mac OS X 10_15_7) AppleWebKit/537.36 (KHTML, like Gecko) Chrome/114.0.0.0 Safari/537.36" version="21.6.1" etag="tbYvi3GMpXY7otdGB75h" type="github">
  <diagram name="第 1 页" id="LjMOyFGxhKosuSc3AvNb">
    <mxGraphModel>
      <root>
        <mxCell id="0" />
        <mxCell id="1" parent="0" />
      </root>
    </mxGraphModel>
  </diagram>
</mxfile>
